<?xml version="1.0" encoding="UTF-8"?>
<mxfile host="app.diagrams.net" modified="2021-05-15T07:23:19.155Z" agent="5.0 (Windows NT 10.0; Win64; x64) AppleWebKit/537.36 (KHTML, like Gecko) Chrome/90.0.4430.212 Safari/537.36" etag="zpxy3Y1IL-YEyJahg5GS" version="14.6.13" type="github">
  <diagram id="kgpKYQtTHZ0yAKxKKP6v" name="Page-1">
    <mxGraphModel dx="1422" dy="762" grid="1" gridSize="10" guides="1" tooltips="1" connect="1" arrows="1" fold="1" page="1" pageScale="1" pageWidth="850" pageHeight="1100" math="0" shadow="0">
      <root>
        <mxCell id="0" />
        <mxCell id="1" parent="0" />
        <mxCell id="s4L36w0Lopv5Bz-zA05d-23" value="" style="rounded=0;whiteSpace=wrap;html=1;" parent="1" vertex="1">
          <mxGeometry x="578" y="560" width="742" height="210" as="geometry" />
        </mxCell>
        <mxCell id="s4L36w0Lopv5Bz-zA05d-24" value="Manager" style="shape=umlActor;verticalLabelPosition=bottom;verticalAlign=top;html=1;outlineConnect=0;" parent="1" vertex="1">
          <mxGeometry x="350" y="240" width="30" height="60" as="geometry" />
        </mxCell>
        <mxCell id="s4L36w0Lopv5Bz-zA05d-25" value=":ViewController" style="rounded=0;whiteSpace=wrap;html=1;" parent="1" vertex="1">
          <mxGeometry x="495" y="240" width="120" height="60" as="geometry" />
        </mxCell>
        <mxCell id="s4L36w0Lopv5Bz-zA05d-26" value="" style="endArrow=none;html=1;" parent="1" edge="1">
          <mxGeometry width="50" height="50" relative="1" as="geometry">
            <mxPoint x="555.0000000000002" y="350" as="sourcePoint" />
            <mxPoint x="554.4999999999998" y="300" as="targetPoint" />
          </mxGeometry>
        </mxCell>
        <mxCell id="s4L36w0Lopv5Bz-zA05d-27" value="" style="rounded=0;whiteSpace=wrap;html=1;" parent="1" vertex="1">
          <mxGeometry x="550" y="350" width="10" height="40" as="geometry" />
        </mxCell>
        <mxCell id="s4L36w0Lopv5Bz-zA05d-28" value=":Controller" style="rounded=0;whiteSpace=wrap;html=1;" parent="1" vertex="1">
          <mxGeometry x="640" y="240" width="120" height="60" as="geometry" />
        </mxCell>
        <mxCell id="s4L36w0Lopv5Bz-zA05d-29" value=":SearchBarView" style="rounded=0;whiteSpace=wrap;html=1;" parent="1" vertex="1">
          <mxGeometry x="790" y="240" width="120" height="60" as="geometry" />
        </mxCell>
        <mxCell id="s4L36w0Lopv5Bz-zA05d-30" value="" style="endArrow=none;html=1;exitX=0.5;exitY=0;exitDx=0;exitDy=0;" parent="1" source="s4L36w0Lopv5Bz-zA05d-31" edge="1">
          <mxGeometry width="50" height="50" relative="1" as="geometry">
            <mxPoint x="849.5" y="360" as="sourcePoint" />
            <mxPoint x="849.5000000000002" y="300" as="targetPoint" />
          </mxGeometry>
        </mxCell>
        <mxCell id="s4L36w0Lopv5Bz-zA05d-31" value="" style="rounded=0;whiteSpace=wrap;html=1;" parent="1" vertex="1">
          <mxGeometry x="845" y="370" width="10" height="60" as="geometry" />
        </mxCell>
        <mxCell id="s4L36w0Lopv5Bz-zA05d-33" value="" style="endArrow=classic;html=1;entryX=0;entryY=0;entryDx=0;entryDy=0;" parent="1" target="s4L36w0Lopv5Bz-zA05d-31" edge="1">
          <mxGeometry width="50" height="50" relative="1" as="geometry">
            <mxPoint x="560" y="370" as="sourcePoint" />
            <mxPoint x="830" y="370" as="targetPoint" />
          </mxGeometry>
        </mxCell>
        <mxCell id="s4L36w0Lopv5Bz-zA05d-34" value="" style="endArrow=classic;html=1;exitX=0.1;exitY=0.65;exitDx=0;exitDy=0;exitPerimeter=0;" parent="1" source="s4L36w0Lopv5Bz-zA05d-31" edge="1">
          <mxGeometry width="50" height="50" relative="1" as="geometry">
            <mxPoint x="830" y="410" as="sourcePoint" />
            <mxPoint x="364" y="410" as="targetPoint" />
          </mxGeometry>
        </mxCell>
        <mxCell id="s4L36w0Lopv5Bz-zA05d-35" value="result displayed" style="text;html=1;strokeColor=none;fillColor=none;align=center;verticalAlign=middle;whiteSpace=wrap;rounded=0;" parent="1" vertex="1">
          <mxGeometry x="390" y="410" width="90" height="20" as="geometry" />
        </mxCell>
        <mxCell id="s4L36w0Lopv5Bz-zA05d-36" value="" style="endArrow=classic;html=1;entryX=0;entryY=0;entryDx=0;entryDy=0;" parent="1" edge="1">
          <mxGeometry width="50" height="50" relative="1" as="geometry">
            <mxPoint x="364" y="490" as="sourcePoint" />
            <mxPoint x="696" y="490" as="targetPoint" />
          </mxGeometry>
        </mxCell>
        <mxCell id="s4L36w0Lopv5Bz-zA05d-37" value="" style="endArrow=none;html=1;exitX=0.5;exitY=0;exitDx=0;exitDy=0;" parent="1" source="s4L36w0Lopv5Bz-zA05d-38" edge="1">
          <mxGeometry width="50" height="50" relative="1" as="geometry">
            <mxPoint x="700" y="480" as="sourcePoint" />
            <mxPoint x="699.5" y="300" as="targetPoint" />
          </mxGeometry>
        </mxCell>
        <mxCell id="s4L36w0Lopv5Bz-zA05d-38" value="" style="rounded=0;whiteSpace=wrap;html=1;" parent="1" vertex="1">
          <mxGeometry x="694" y="490" width="10" height="70" as="geometry" />
        </mxCell>
        <mxCell id="s4L36w0Lopv5Bz-zA05d-39" value=":DBConnection" style="rounded=0;whiteSpace=wrap;html=1;" parent="1" vertex="1">
          <mxGeometry x="940" y="240" width="120" height="60" as="geometry" />
        </mxCell>
        <mxCell id="s4L36w0Lopv5Bz-zA05d-40" value="Database" style="shape=umlActor;verticalLabelPosition=bottom;verticalAlign=top;html=1;outlineConnect=0;" parent="1" vertex="1">
          <mxGeometry x="1270" y="240" width="29" height="60" as="geometry" />
        </mxCell>
        <mxCell id="s4L36w0Lopv5Bz-zA05d-41" value="" style="endArrow=classic;html=1;entryX=0;entryY=0;entryDx=0;entryDy=0;" parent="1" target="s4L36w0Lopv5Bz-zA05d-49" edge="1">
          <mxGeometry width="50" height="50" relative="1" as="geometry">
            <mxPoint x="703.3800000000001" y="600" as="sourcePoint" />
            <mxPoint x="968.38" y="600" as="targetPoint" />
          </mxGeometry>
        </mxCell>
        <mxCell id="s4L36w0Lopv5Bz-zA05d-42" value="bookList = retrieve(ID or name)" style="text;html=1;strokeColor=none;fillColor=none;align=center;verticalAlign=middle;whiteSpace=wrap;rounded=0;" parent="1" vertex="1">
          <mxGeometry x="738.38" y="600" width="250" height="20" as="geometry" />
        </mxCell>
        <mxCell id="s4L36w0Lopv5Bz-zA05d-43" value="" style="endArrow=classic;html=1;exitX=0.662;exitY=0.25;exitDx=0;exitDy=0;exitPerimeter=0;" parent="1" edge="1">
          <mxGeometry width="50" height="50" relative="1" as="geometry">
            <mxPoint x="996" y="615" as="sourcePoint" />
            <mxPoint x="1286" y="615" as="targetPoint" />
          </mxGeometry>
        </mxCell>
        <mxCell id="s4L36w0Lopv5Bz-zA05d-44" style="edgeStyle=orthogonalEdgeStyle;rounded=0;orthogonalLoop=1;jettySize=auto;html=1;entryX=0.5;entryY=1;entryDx=0;entryDy=0;strokeColor=none;" parent="1" edge="1">
          <mxGeometry relative="1" as="geometry">
            <mxPoint x="1290" y="530" as="sourcePoint" />
            <mxPoint x="1290" y="300" as="targetPoint" />
          </mxGeometry>
        </mxCell>
        <mxCell id="s4L36w0Lopv5Bz-zA05d-45" value="retrieve records" style="text;html=1;strokeColor=none;fillColor=none;align=center;verticalAlign=middle;whiteSpace=wrap;rounded=0;" parent="1" vertex="1">
          <mxGeometry x="1190" y="590" width="90" height="30" as="geometry" />
        </mxCell>
        <mxCell id="s4L36w0Lopv5Bz-zA05d-46" value="" style="endArrow=classic;html=1;dashed=1;entryX=0.662;entryY=0.75;entryDx=0;entryDy=0;entryPerimeter=0;" parent="1" target="s4L36w0Lopv5Bz-zA05d-49" edge="1">
          <mxGeometry width="50" height="50" relative="1" as="geometry">
            <mxPoint x="1284" y="645" as="sourcePoint" />
            <mxPoint x="1070" y="645" as="targetPoint" />
          </mxGeometry>
        </mxCell>
        <mxCell id="s4L36w0Lopv5Bz-zA05d-47" value="result" style="text;html=1;strokeColor=none;fillColor=none;align=center;verticalAlign=middle;whiteSpace=wrap;rounded=0;" parent="1" vertex="1">
          <mxGeometry x="1010" y="640" width="40" height="30" as="geometry" />
        </mxCell>
        <mxCell id="s4L36w0Lopv5Bz-zA05d-48" value="" style="endArrow=none;html=1;entryX=0.5;entryY=1;entryDx=0;entryDy=0;startArrow=none;exitX=0.5;exitY=0;exitDx=0;exitDy=0;" parent="1" target="s4L36w0Lopv5Bz-zA05d-27" edge="1">
          <mxGeometry width="50" height="50" relative="1" as="geometry">
            <mxPoint x="555" y="800" as="sourcePoint" />
            <mxPoint x="554.76" y="430" as="targetPoint" />
          </mxGeometry>
        </mxCell>
        <mxCell id="s4L36w0Lopv5Bz-zA05d-49" value="" style="rounded=0;whiteSpace=wrap;html=1;" parent="1" vertex="1">
          <mxGeometry x="993.38" y="600" width="10" height="60" as="geometry" />
        </mxCell>
        <mxCell id="s4L36w0Lopv5Bz-zA05d-50" value="" style="endArrow=none;html=1;entryX=0.5;entryY=0;entryDx=0;entryDy=0;" parent="1" target="s4L36w0Lopv5Bz-zA05d-49" edge="1">
          <mxGeometry width="50" height="50" relative="1" as="geometry">
            <mxPoint x="999.4100000000001" y="300" as="sourcePoint" />
            <mxPoint x="1000" y="640" as="targetPoint" />
          </mxGeometry>
        </mxCell>
        <mxCell id="s4L36w0Lopv5Bz-zA05d-51" value="" style="endArrow=none;html=1;" parent="1" edge="1">
          <mxGeometry width="50" height="50" relative="1" as="geometry">
            <mxPoint x="364" y="800" as="sourcePoint" />
            <mxPoint x="363.5" y="320" as="targetPoint" />
          </mxGeometry>
        </mxCell>
        <mxCell id="s4L36w0Lopv5Bz-zA05d-52" value="" style="endArrow=none;html=1;" parent="1" edge="1">
          <mxGeometry width="50" height="50" relative="1" as="geometry">
            <mxPoint x="1285" y="800" as="sourcePoint" />
            <mxPoint x="1284.5" y="320" as="targetPoint" />
          </mxGeometry>
        </mxCell>
        <mxCell id="s4L36w0Lopv5Bz-zA05d-53" value="" style="endArrow=none;html=1;" parent="1" edge="1">
          <mxGeometry width="50" height="50" relative="1" as="geometry">
            <mxPoint x="850" y="800" as="sourcePoint" />
            <mxPoint x="850" y="430" as="targetPoint" />
          </mxGeometry>
        </mxCell>
        <mxCell id="s4L36w0Lopv5Bz-zA05d-55" value="Authenticator" style="rounded=0;whiteSpace=wrap;html=1;" parent="1" vertex="1">
          <mxGeometry x="1090" y="240" width="120" height="60" as="geometry" />
        </mxCell>
        <mxCell id="s4L36w0Lopv5Bz-zA05d-56" value="" style="endArrow=none;html=1;startArrow=none;" parent="1" source="s4L36w0Lopv5Bz-zA05d-57" edge="1">
          <mxGeometry width="50" height="50" relative="1" as="geometry">
            <mxPoint x="1150" y="640" as="sourcePoint" />
            <mxPoint x="1150" y="300" as="targetPoint" />
          </mxGeometry>
        </mxCell>
        <mxCell id="s4L36w0Lopv5Bz-zA05d-57" value="" style="rounded=0;whiteSpace=wrap;html=1;" parent="1" vertex="1">
          <mxGeometry x="1145" y="510" width="10" height="30" as="geometry" />
        </mxCell>
        <mxCell id="s4L36w0Lopv5Bz-zA05d-58" value="" style="endArrow=none;html=1;" parent="1" target="s4L36w0Lopv5Bz-zA05d-57" edge="1">
          <mxGeometry width="50" height="50" relative="1" as="geometry">
            <mxPoint x="1150" y="800" as="sourcePoint" />
            <mxPoint x="1150" y="300" as="targetPoint" />
          </mxGeometry>
        </mxCell>
        <mxCell id="s4L36w0Lopv5Bz-zA05d-59" value="" style="endArrow=classic;html=1;exitX=0.6;exitY=0.167;exitDx=0;exitDy=0;exitPerimeter=0;entryX=0;entryY=0;entryDx=0;entryDy=0;" parent="1" target="s4L36w0Lopv5Bz-zA05d-57" edge="1">
          <mxGeometry width="50" height="50" relative="1" as="geometry">
            <mxPoint x="705" y="510.03999999999996" as="sourcePoint" />
            <mxPoint x="1130" y="520" as="targetPoint" />
          </mxGeometry>
        </mxCell>
        <mxCell id="s4L36w0Lopv5Bz-zA05d-60" value="isAuthenticateUser = retrieve(token : string)" style="text;html=1;strokeColor=none;fillColor=none;align=center;verticalAlign=middle;whiteSpace=wrap;rounded=0;" parent="1" vertex="1">
          <mxGeometry x="890" y="490" width="240" height="20" as="geometry" />
        </mxCell>
        <mxCell id="s4L36w0Lopv5Bz-zA05d-61" value="" style="endArrow=none;html=1;" parent="1" edge="1">
          <mxGeometry width="50" height="50" relative="1" as="geometry">
            <mxPoint x="523.3800000000001" y="650" as="sourcePoint" />
            <mxPoint x="523.3800000000001" y="650" as="targetPoint" />
          </mxGeometry>
        </mxCell>
        <mxCell id="s4L36w0Lopv5Bz-zA05d-62" value="" style="verticalLabelPosition=bottom;verticalAlign=top;html=1;shape=card;whiteSpace=wrap;size=20;arcSize=12;rotation=-180;" parent="1" vertex="1">
          <mxGeometry x="578" y="560" width="46" height="40" as="geometry" />
        </mxCell>
        <mxCell id="s4L36w0Lopv5Bz-zA05d-63" value="&lt;font style=&quot;font-size: 18px&quot;&gt;alt&lt;/font&gt;" style="text;html=1;strokeColor=none;fillColor=none;align=center;verticalAlign=middle;whiteSpace=wrap;rounded=0;" parent="1" vertex="1">
          <mxGeometry x="576" y="570" width="45" height="20" as="geometry" />
        </mxCell>
        <mxCell id="s4L36w0Lopv5Bz-zA05d-64" value="isAuthenticateUser == true" style="text;html=1;strokeColor=none;fillColor=none;align=center;verticalAlign=middle;whiteSpace=wrap;rounded=0;" parent="1" vertex="1">
          <mxGeometry x="617.75" y="560" width="162.5" height="30" as="geometry" />
        </mxCell>
        <mxCell id="s4L36w0Lopv5Bz-zA05d-65" value="" style="rounded=0;whiteSpace=wrap;html=1;" parent="1" vertex="1">
          <mxGeometry x="694" y="590" width="10" height="100" as="geometry" />
        </mxCell>
        <mxCell id="s4L36w0Lopv5Bz-zA05d-66" value="" style="endArrow=none;html=1;" parent="1" edge="1">
          <mxGeometry width="50" height="50" relative="1" as="geometry">
            <mxPoint x="998" y="800" as="sourcePoint" />
            <mxPoint x="997.8800000000001" y="660" as="targetPoint" />
          </mxGeometry>
        </mxCell>
        <mxCell id="s4L36w0Lopv5Bz-zA05d-67" value="" style="endArrow=none;html=1;exitX=0;exitY=0.695;exitDx=0;exitDy=0;dashed=1;fontStyle=1;fontSize=12;entryX=1.001;entryY=0.7;entryDx=0;entryDy=0;exitPerimeter=0;entryPerimeter=0;" parent="1" source="s4L36w0Lopv5Bz-zA05d-23" target="s4L36w0Lopv5Bz-zA05d-23" edge="1">
          <mxGeometry width="50" height="50" relative="1" as="geometry">
            <mxPoint x="540" y="688" as="sourcePoint" />
            <mxPoint x="1305" y="688" as="targetPoint" />
          </mxGeometry>
        </mxCell>
        <mxCell id="s4L36w0Lopv5Bz-zA05d-68" value="[else]" style="text;html=1;strokeColor=none;fillColor=none;align=center;verticalAlign=middle;whiteSpace=wrap;rounded=0;fontSize=12;" parent="1" vertex="1">
          <mxGeometry x="654" y="710" width="40" height="20" as="geometry" />
        </mxCell>
        <mxCell id="s4L36w0Lopv5Bz-zA05d-69" style="edgeStyle=orthogonalEdgeStyle;rounded=0;orthogonalLoop=1;jettySize=auto;html=1;exitX=0.5;exitY=1;exitDx=0;exitDy=0;fontSize=12;" parent="1" source="s4L36w0Lopv5Bz-zA05d-32" target="s4L36w0Lopv5Bz-zA05d-32" edge="1">
          <mxGeometry relative="1" as="geometry" />
        </mxCell>
        <mxCell id="s4L36w0Lopv5Bz-zA05d-70" value="isAuthenticateUser == false" style="text;html=1;strokeColor=none;fillColor=none;align=center;verticalAlign=middle;whiteSpace=wrap;rounded=0;" parent="1" vertex="1">
          <mxGeometry x="617.75" y="730" width="162.5" height="30" as="geometry" />
        </mxCell>
        <mxCell id="s4L36w0Lopv5Bz-zA05d-71" value="" style="endArrow=none;html=1;" parent="1" edge="1">
          <mxGeometry width="50" height="50" relative="1" as="geometry">
            <mxPoint x="699" y="800" as="sourcePoint" />
            <mxPoint x="698.5" y="770" as="targetPoint" />
          </mxGeometry>
        </mxCell>
        <mxCell id="s4L36w0Lopv5Bz-zA05d-32" value="searchBookPage = render()" style="text;html=1;strokeColor=none;align=center;verticalAlign=middle;whiteSpace=wrap;rounded=0;labelBackgroundColor=#ffffff;" parent="1" vertex="1">
          <mxGeometry x="654" y="370" width="160" height="20" as="geometry" />
        </mxCell>
        <mxCell id="s4L36w0Lopv5Bz-zA05d-54" value="search book request(Title : string or Author : string, token : string)" style="text;html=1;strokeColor=none;fillColor=none;align=center;verticalAlign=middle;whiteSpace=wrap;rounded=0;labelBackgroundColor=#ffffff;" parent="1" vertex="1">
          <mxGeometry x="320" y="490" width="356" height="20" as="geometry" />
        </mxCell>
      </root>
    </mxGraphModel>
  </diagram>
</mxfile>
